<svg width="1250" height="429" viewBox="0 0 1250 429" fill="none" xmlns="http://www.w3.org/2000/svg">
<path d="M196.4 220L175 189L157 220H120L156.8 163L119 108.4H157.4L178.8 139.2L196.8 108.4H233.8L196.4 164.6L234.8 220H196.4ZM361.978 108.4L291.978 273H255.178L280.778 216.2L235.378 108.4H273.578L299.378 178.2L324.978 108.4H361.978Z" fill="white"/>
<path d="M59 103C47.3309 103 35.9239 106.431 26.2214 112.859C16.5189 119.287 8.9567 128.424 4.49113 139.113C0.0255638 149.802 -1.14283 161.565 1.13369 172.913C3.41022 184.261 9.02943 194.684 17.2807 202.866C25.532 211.047 36.0448 216.619 47.4897 218.876C58.9346 221.133 70.7975 219.975 81.5783 215.547C92.3592 211.119 101.574 203.621 108.057 194.001C114.54 184.381 118 173.07 118 161.5C118 153.818 116.474 146.211 113.509 139.113C110.544 132.015 106.198 125.566 100.719 120.134C95.2406 114.702 88.7365 110.393 81.5783 107.453C74.4201 104.513 66.748 103 59 103ZM11.8 161.5C11.8183 157.994 12.2339 154.501 13.039 151.087L41.3 179.05V184.9C41.3 188.003 42.5432 190.979 44.7562 193.173C46.9691 195.367 49.9705 196.6 53.1 196.6V207.89C41.7011 206.467 31.2174 200.969 23.6142 192.429C16.011 183.888 11.8104 172.892 11.8 161.5ZM93.751 193.09C93.0032 190.732 91.5214 188.669 89.5181 187.198C87.5148 185.727 85.0929 184.922 82.6 184.9H76.7V167.35C76.7 165.798 76.0784 164.31 74.9719 163.213C73.8655 162.116 72.3648 161.5 70.8 161.5H35.4V149.8H47.2C48.7648 149.8 50.2655 149.184 51.3719 148.087C52.4784 146.989 53.1 145.502 53.1 143.95V132.25H64.9C68.0296 132.25 71.0309 131.017 73.2439 128.823C75.4568 126.629 76.7 123.653 76.7 120.55V118.151C83.7543 120.987 90.0121 125.473 94.9399 131.226C99.8676 136.978 103.319 143.827 105 151.189C106.68 158.55 106.541 166.205 104.592 173.501C102.644 180.797 98.9446 187.518 93.81 193.09H93.751Z" fill="white"/>
<path d="M29.5003 139.25C26.3953 136.467 23.5172 133.415 20.8962 130.128C16.9628 125.191 12.292 117.839 12.292 110.833C12.2885 103.516 16.4816 96.9177 22.9146 94.1174C29.3476 91.3171 36.7526 92.8667 41.674 98.0431C44.9103 101.429 46.7232 106.034 46.7087 110.833C46.7087 117.839 42.0378 125.191 38.1045 130.128C35.4835 133.415 32.6054 136.467 29.5003 139.25ZM29.5003 103.083C26.8655 103.083 24.4308 104.56 23.1134 106.958C21.796 109.356 21.796 112.31 23.1134 114.708C24.4308 117.106 26.8655 118.583 29.5003 118.583C33.5734 118.583 36.8753 115.113 36.8753 110.833C36.8753 106.553 33.5734 103.083 29.5003 103.083Z" fill="black"/>
<path d="M481.4 82.6V110H444.2V223H410V110H372.8V82.6H481.4ZM570.164 223L540.964 170H532.764V223H498.564V82.6H555.964C567.031 82.6 576.431 84.5333 584.164 88.4C592.031 92.2667 597.897 97.6 601.764 104.4C605.631 111.067 607.564 118.533 607.564 126.8C607.564 136.133 604.897 144.467 599.564 151.8C594.364 159.133 586.631 164.333 576.364 167.4L608.764 223H570.164ZM532.764 145.8H553.964C560.231 145.8 564.897 144.267 567.964 141.2C571.164 138.133 572.764 133.8 572.764 128.2C572.764 122.867 571.164 118.667 567.964 115.6C564.897 112.533 560.231 111 553.964 111H532.764V145.8ZM716.433 198.2H664.033L655.633 223H619.833L670.633 82.6H710.233L761.033 223H724.833L716.433 198.2ZM707.633 171.8L690.233 120.4L673.033 171.8H707.633ZM880.294 82.6L830.494 223H787.694L737.894 82.6H774.294L809.094 188.6L844.094 82.6H880.294ZM928.788 110V138.4H974.588V164.8H928.788V195.6H980.588V223H894.588V82.6H980.588V110H928.788ZM1036.99 196.6H1081.79V223H1002.79V82.6H1036.99V196.6Z" fill="black"/>
</svg>
